<svg xmlns="http://www.w3.org/2000/svg" viewBox="0 0 817 817" width="200" height="200">
  <defs>
    <linearGradient id="grad1" x1="0%" y1="0%" x2="100%" y2="0%">
      <stop offset="0%" stop-color="#ff6cab"/>
      <stop offset="100%" stop-color="#7366ff"/>
    </linearGradient>
  </defs>
  <path d="M118 772L168 804L253 753C267 746 267 747 260 752L181 810L245 832L363 725C403 689 461 666 508 632C555 597 595 555 619 519C643 483 651 453 672 447C695 442 755 480 755 479L712 426C703 415 703 416 709 421L777 475C776 448 786 425 748 376C741 368 744 361 745 350C746 337 713 290 703 282L590 183L623 273C625 280 627 280 617 274L572 246L595 284C599 291 579 293 562 304C545 316 521 352 500 336L83 15L69 199L363 390C422 428 423 427 363 394L74 234L125 426L341 464C384 472 385 470 344 467C324 465 153 448 148 453C142 459 248 578 258 590L250 637L118 772z"
        fill="url(#grad1)" />
</svg>
